<svg id="slidingMenu" xmlns="http://www.w3.org/2000/svg" viewBox="0 0 1920 1080" width="1920" height="1080"
     preserveAspectRatio="xMidYMid meet" style="width: 100%; height: 100%;">
  <defs>
    <clipPath id="animationMask_fAA9P5CCq0">
      <rect width="1920" height="1080" x="200" y="200"></rect>
    </clipPath>
  </defs>
  <g id="gSvg" clip-path="url(#animationMask_fAA9P5CCq0)">
    <g transform="matrix(1.025,0,0,1.025,515.15,149.9)" opacity="1" style="user-select: none;">
      <g opacity="1" transform="matrix(1,0,0,1,435.109,241.421)">
        <path stroke-linecap="butt" stroke-linejoin="miter" fill-opacity="0" stroke-miterlimit="4"
              stroke="rgb(255,255,255)" stroke-opacity="1" stroke-width="6"
              d="M0 0 M112.44,-13.805 C105.609,-69.779 57.79,-113.278 0,-113.278 C0,-113.278 0,-113.278 0,-113.278 C-62.461,-113.278 -113.277,-62.461000000000006 -113.277,0.001 C-113.277,62.461999999999996 -62.461,113.277 0,113.277 C62.462,113.277 113.277,62.461999999999996 113.277,0.001 C113.277,-4.671 112.993,-9.279 112.44,-13.805"></path>
      </g>
    </g>
    <g transform="matrix(1,0,0,1,526,156)" opacity="1" style="user-select: none; display: block;">
      <g opacity="1" transform="matrix(1.03,0,0,1.03,441.291,245.958)">
        <path stroke-linecap="butt" stroke-linejoin="miter" fill-opacity="0" stroke-miterlimit="4"
              style="display: block;" stroke="rgb(255,255,255)" stroke-opacity="1" stroke-width="6"
              d="M0 0 M-80.567,-44.652 C-87.931,-31.417 -92.129,-16.19 -92.129,0 C-92.129,50.8 -50.8,92.129 0,92.129 C50.8,92.129 92.129,50.8 92.129,0 C92.129,-50.8 50.8,-92.129 0,-92.129 C0,-92.129 0,-92.129 0,-92.129 C-34.61,-92.129 -64.825,-72.945 -80.567,-44.652"></path>
      </g>
    </g>
    <g transform="matrix(1.03,0,0,1.03,512.98,148.695)" opacity="1" style="user-select: none; display: block;">
      <g opacity="1" transform="matrix(1,0,0,1,431.032,236.878)">
        <path stroke-linecap="butt" stroke-linejoin="miter" fill-opacity="0" stroke-miterlimit="4"
              style="display: block;" stroke="rgb(255,255,255)" stroke-opacity="1" stroke-width="6"
              d="M0 0 M67.367,-13.093 C61.238,-44.689 33.361,-68.62 0,-68.62 C0,-68.62 0,-68.62 0,-68.62 C-37.837,-68.62 -68.62,-37.836000000000006 -68.62,0.001 C-68.62,37.838 -37.837,68.62 0,68.62 C37.837,68.62 68.62,37.838 68.62,0.001 C68.62,-4.475 68.189,-8.853 67.367,-13.093"></path>
      </g>
    </g>
    <g transform="matrix(1,0,0,1,526,156)" opacity="1" style="user-select: none; display: block;">
      <g opacity="1" transform="matrix(1,0,0,1,435.42,259.474)">
        <path id="path" fill="rgb(255,255,255)" fill-opacity="1"
              d="M0 0 M0.001,30.954 C-17.067,30.954 -30.954,17.067 -30.954,0 C-30.954,-17.068 -17.067,-30.954 0.001,-30.954 C17.069000000000003,-30.954 30.954,-17.068 30.954,0 C30.954,17.067 17.069000000000003,30.954 0.001,30.954zM0 0 M0.001,-25.183 C-13.886000000000001,-25.183 -25.184,-13.886 -25.184,0 C-25.184,13.886 -13.886000000000001,25.183 0.001,25.183 C13.886,25.183 25.182,13.886 25.182,0 C25.182,-13.886 13.886,-25.183 0.001,-25.183z"
              style="display: block;"></path>
      </g>
    </g>
    <g transform="matrix(1,0,0,1,526,156)" opacity="1" style="user-select: none; display: block;">
      <g opacity="1" transform="matrix(1,0,0,1,435.42,259.474)">
        <path fill="rgb(255,255,255)" fill-opacity="1"
              d="M0 0 M5.871,0 C5.871,3.242 3.242,5.871 0,5.871 C-3.242,5.871 -5.871,3.242 -5.871,0 C-5.871,-3.243 -3.242,-5.871 0,-5.871 C3.242,-5.871 5.871,-3.243 5.871,0z"
              style="display: block;"></path>
      </g>
    </g>
    <g transform="matrix(1,0,0,1,526,156)" opacity="1" style="user-select: none; display: block;">
      <g opacity="1" transform="matrix(1,0,0,1,435.25,192.365)">
        <path id="path" fill="rgb(255,255,255)" fill-opacity="1"
              d="M0 0 M2.885,67.107 C2.885,67.107 -2.885,67.107 -2.885,67.107 C-2.885,67.107 -2.885,-67.107 -2.885,-67.107 C-2.885,-67.107 2.885,-67.107 2.885,-67.107 C2.885,-67.107 2.885,67.107 2.885,67.107z"
              style="display: block;"></path>
      </g>
    </g>
    <g transform="matrix(1,0,0,1,526,156)" opacity="1" style="user-select: none; display: block;">
      <g opacity="1" transform="matrix(1,0,0,1,435.25,333.194)">
        <path fill="rgb(255,255,255)" fill-opacity="1"
              d="M0 0 M2.885,24.391 C2.885,24.391 -2.885,24.391 -2.885,24.391 C-2.885,24.391 -2.885,-24.391 -2.885,-24.391 C-2.885,-24.391 2.885,-24.391 2.885,-24.391 C2.885,-24.391 2.885,24.391 2.885,24.391z"
              style="display: block;"></path>
      </g>
    </g>
    <g transform="matrix(1,0,0,1,526,156)" opacity="1" style="user-select: none; display: block;">
      <g opacity="1" transform="matrix(1,0,0,1,435.42,215.462)">
        <path fill="rgb(255,255,255)" fill-opacity="1"
              d="M0 0 M0,10.972 C-6.05,10.972 -10.972,6.05 -10.972,0 C-10.972,-6.05 -6.05,-10.972 0,-10.972 C6.05,-10.972 10.972,-6.05 10.972,0 C10.972,6.05 6.05,10.972 0,10.972zM0 0 M0,-5.201 C-2.868,-5.201 -5.201,-2.868 -5.201,0 C-5.201,2.868 -2.868,5.201 0,5.201 C2.868,5.201 5.201,2.868 5.201,0 C5.201,-2.868 2.868,-5.201 0,-5.201z"
              style="display: block;"></path>
      </g>
    </g>
    <g transform="matrix(1,0,0,1,526,156)" opacity="1" style="user-select: none; display: block;">
      <g opacity="1" transform="matrix(1,0,0,1,500.722,295.78)">
        <path fill="rgb(255,255,255)" fill-opacity="1"
              d="M0 0 M0.001,15.488 C-8.541,15.488 -15.488,8.540000000000001 -15.488,-0.001 C-15.488,-8.540999999999999 -8.541,-15.489 0.001,-15.489 C8.540999999999999,-15.489 15.488,-8.540999999999999 15.488,-0.001 C15.488,8.540000000000001 8.540999999999999,15.488 0.001,15.488zM0 0 M0.001,-9.718 C-5.358,-9.718 -9.718,-5.359 -9.718,-0.001 C-9.718,5.358 -5.358,9.717 0.001,9.717 C5.3580000000000005,9.717 9.718,5.358 9.718,-0.001 C9.718,-5.359 5.3580000000000005,-9.718 0.001,-9.718z"
              style="display: block;"></path>
      </g>
    </g>
    <g transform="matrix(1,0,0,1,526,156)" opacity="1" style="user-select: none; display: block;">
      <g opacity="1" transform="matrix(1,0,0,1,393.945,322.981)">
        <path fill="rgb(255,255,255)" fill-opacity="1"
              d="M0 0 M12.603,0 C12.603,6.96 6.96,12.603 0,12.603 C-6.96,12.603 -12.603,6.96 -12.603,0 C-12.603,-6.96 -6.96,-12.603 0,-12.603 C6.96,-12.603 12.603,-6.96 12.603,0z"
              style="display: block;"></path>
      </g>
    </g>
    <g transform="matrix(1,0,0,1,526,156)" opacity="1" style="user-select: none; display: block;">
      <g opacity="1" transform="matrix(1,0,0,1,393.945,322.981)">
        <path fill="rgb(255,255,255)" fill-opacity="1"
              d="M0 0 M12.603,0 C12.603,6.96 6.96,12.603 0,12.603 C-6.96,12.603 -12.603,6.96 -12.603,0 C-12.603,-6.96 -6.96,-12.603 0,-12.603 C6.96,-12.603 12.603,-6.96 12.603,0z"
              style="display: block;"></path>
      </g>
    </g>
    <g id="ss" transform="matrix(1,0,0,1,526,156)" opacity="1" style="user-select: none; display: block;">
      <g opacity="1" transform="matrix(1,0,0,1,435.42,159.314)">
        <path fill="rgb(255,255,255)" fill-opacity="1"
              d="M0 0 M29.702,0 C29.702,16.404 16.404,29.702 0,29.702 C-16.404,29.702 -29.702,16.404 -29.702,0 C-29.702,-16.404 -16.404,-29.702 0,-29.702 C16.404,-29.702 29.702,-16.404 29.702,0z"
              style="display: block;"></path>
        <!--<animateTransform attributeName="transform" dur="2s" type="scale" from="1 0 0" to="2"  repeatCount="indefinite" additive="sum" accumulate="none"/>-->
        <!--<animate attributeName="x" dur="5s" values="0; 80; 160" keyTimes="0; .8; 1" calcMode="spline"  keySplines=".5 0 .5 1; 0 0 1 1" />-->
      </g>
      <animateTransform attributeName="transform" dur="2s" type="rotate" from="7deg" to="7deg"  repeatCount="indefinite" additive="sum" accumulate="none"/>
    </g>

    <!--GALLIFREY-->
    <!--       <g transform="matrix(1,0,0,1,526,156)" opacity="1" style="user-select: none; display: block;">
             <g opacity="1" transform="matrix(1,0,0,1,67.363,498.347)">
               <path fill="rgb(255,255,255)" fill-opacity="1"
                     d="M0 0 M22.458,-34.999 C23.36,-34.267 24.037,-33.814 24.77,-33.814 C26.235,-33.814 27.192999999999998,-36.013000000000005 27.644,-40.859 C27.644,-40.859 30.293,-40.859 30.293,-40.859 C29.955,-35.224000000000004 29.842,-27.727 29.842,-14.314 C29.842,-14.314 27.193,-14.314 27.193,-14.314 C26.122,-20.796 24.994,-26.994999999999997 21.387,-31.391 C16.878,-37.025999999999996 9.159,-40.408 1.438,-40.408 C-13.892,-40.408 -23.98,-24.685 -23.98,0.113 C-23.98,27.841 -15.301000000000002,40.184 3.523,40.184 C9.046,40.184 13.216,38.21 15.527,36.576 C18.401,34.604 18.852,33.138 18.852,30.264 C18.852,30.264 18.852,19.161 18.852,19.161 C18.852,9.806000000000001 16.878999999999998,8.454 7.186,8.06 C7.186,8.06 7.186,5.749 7.186,5.749 C11.244,6.029999999999999 18.289,6.143 23.474,6.143 C28.545,6.143 32.716,6.029999999999999 35.478,5.749 C35.478,5.749 35.478,8.06 35.478,8.06 C30.405,8.454 29.616,9.469 29.616,17.979 C29.616,17.979 29.616,40.859 29.616,40.859 C29.616,40.859 27.306,40.859 27.306,40.859 C27.193,38.21 26.122,34.266 24.15,34.266 C23.247999999999998,34.266 22.685,34.49 20.374,36.237 C15.302,40.07 9.835,42.493 2.339,42.493 C-21.557000000000002,42.493 -35.477,27.108 -35.477,1.409 C-35.477,-25.529 -19.81,-42.493 1.663,-42.493 C11.695,-42.493 16.991,-38.888000000000005 22.458,-34.999z"
                     style="display: block;"></path>
             </g>
             <g opacity="1" transform="matrix(1,0,0,1,169.077,498.066)">
               <path fill="rgb(255,255,255)" fill-opacity="1"
                     d="M0 0 M29.109,31.447 C31.419,37.309 34.687999999999995,38.717999999999996 37.111,38.83 C37.111,38.83 37.111,41.142 37.111,41.142 C33.955999999999996,40.916000000000004 29.11,40.803 24.714,40.803 C18.74,40.803 13.216,40.916000000000004 9.947,41.142 C9.947,41.142 9.947,38.83 9.947,38.83 C15.526,38.605 18.119,37.76 18.119,34.547 C18.119,33.193999999999996 17.668,31.447 16.766,29.137 C16.766,29.137 9.665,10.2 9.665,10.2 C9.665,10.2 -18.176,10.2 -18.176,10.2 C-18.176,10.2 -22.91,22.431 -22.91,22.431 C-24.488,26.432000000000002 -25.219,29.531 -25.219,31.898 C-25.219,36.914 -21.783,38.661 -15.189,38.83 C-15.189,38.83 -15.189,41.142 -15.189,41.142 C-19.585,40.916000000000004 -24.43,40.803 -28.488,40.803 C-32.377,40.803 -34.8,40.916000000000004 -37.111,41.142 C-37.111,41.142 -37.111,38.83 -37.111,38.83 C-34.123999999999995,38.153999999999996 -30.687,35.73 -28.038,28.799 C-28.038,28.799 -0.874,-41.142 -0.874,-41.142 C-0.874,-41.142 0.986,-41.142 0.986,-41.142 C0.986,-41.142 29.109,31.447 29.109,31.447zM0 0 M-4.085,-26.545 C-4.085,-26.545 -17.329,7.89 -17.329,7.89 C-17.329,7.89 8.82,7.89 8.82,7.89 C8.82,7.89 -4.085,-26.545 -4.085,-26.545z"
                     style="display: block;"></path>
             </g>
             <g opacity="1" transform="matrix(1,0,0,1,263.916,498.347)">
               <path fill="rgb(255,255,255)" fill-opacity="1"
                     d="M0 0 M-0.535,-38.549 C-8.369,-38.21 -9.89,-37.027 -9.89,-28.63 C-9.89,-28.63 -9.89,28.63 -9.89,28.63 C-9.89,37.027 -8.369,38.211 -0.535,38.211 C-0.535,38.211 7.919,38.211 7.919,38.211 C22.346,38.211 25.22,32.687 26.855,16.626 C26.855,16.626 29.504,16.626 29.504,16.626 C29.278000000000002,19.05 29.165,22.374000000000002 29.165,26.094 C29.165,28.969 29.391000000000002,34.999 29.954,40.86 C22.121000000000002,40.521 11.244,40.521 3.523,40.521 C-3.4099999999999997,40.521 -18.626,40.521 -29.954,40.86 C-29.954,40.86 -29.954,38.549 -29.954,38.549 C-22.12,38.211 -20.598,37.027 -20.598,28.63 C-20.598,28.63 -20.598,-28.63 -20.598,-28.63 C-20.598,-37.027 -22.12,-38.21 -29.954,-38.549 C-29.954,-38.549 -29.954,-40.86 -29.954,-40.86 C-26.742,-40.634 -21.162,-40.521 -15.188,-40.521 C-9.89,-40.521 -4.086,-40.634 -0.535,-40.86 C-0.535,-40.86 -0.535,-38.549 -0.535,-38.549z"
                     style="display: block;"></path>
             </g>
             <g opacity="1" transform="matrix(1,0,0,1,357.742,498.347)">
               <path fill="rgb(255,255,255)" fill-opacity="1"
                     d="M0 0 M-0.536,-38.549 C-8.369,-38.21 -9.891,-37.027 -9.891,-28.63 C-9.891,-28.63 -9.891,28.63 -9.891,28.63 C-9.891,37.027 -8.369,38.211 -0.536,38.211 C-0.536,38.211 7.918,38.211 7.918,38.211 C22.345,38.211 25.22,32.687 26.854,16.626 C26.854,16.626 29.503,16.626 29.503,16.626 C29.277,19.05 29.165,22.374000000000002 29.165,26.094 C29.165,28.969 29.39,34.999 29.954,40.86 C22.12,40.521 11.243,40.521 3.522,40.521 C-3.4100000000000006,40.521 -18.627000000000002,40.521 -29.954,40.86 C-29.954,40.86 -29.954,38.549 -29.954,38.549 C-22.121000000000002,38.211 -20.599,37.027 -20.599,28.63 C-20.599,28.63 -20.599,-28.63 -20.599,-28.63 C-20.599,-37.027 -22.121000000000002,-38.21 -29.954,-38.549 C-29.954,-38.549 -29.954,-40.86 -29.954,-40.86 C-26.742,-40.634 -21.163,-40.521 -15.189,-40.521 C-9.891,-40.521 -4.086,-40.634 -0.536,-40.86 C-0.536,-40.86 -0.536,-38.549 -0.536,-38.549z"
                     style="display: block;"></path>
             </g>
             <g opacity="1" transform="matrix(1,0,0,1,436.321,498.347)">
               <path fill="rgb(255,255,255)" fill-opacity="1"
                     d="M0 0 M14.709,-38.549 C6.875,-38.21 5.354,-37.027 5.354,-28.63 C5.354,-28.63 5.354,28.63 5.354,28.63 C5.354,37.027 6.875,38.211 14.709,38.549 C14.709,38.549 14.709,40.86 14.709,40.86 C11.158,40.635 5.354,40.521 0.056,40.521 C-5.918,40.521 -11.497,40.635 -14.709,40.86 C-14.709,40.86 -14.709,38.549 -14.709,38.549 C-6.8759999999999994,38.211 -5.354,37.027 -5.354,28.63 C-5.354,28.63 -5.354,-28.63 -5.354,-28.63 C-5.354,-37.027 -6.8759999999999994,-38.21 -14.709,-38.549 C-14.709,-38.549 -14.709,-40.86 -14.709,-40.86 C-11.497,-40.634 -5.918,-40.521 0.056,-40.521 C5.354,-40.521 11.158,-40.634 14.709,-40.86 C14.709,-40.86 14.709,-38.549 14.709,-38.549z"
                     style="display: block;"></path>
             </g>
             <g opacity="1" transform="matrix(1,0,0,1,515.492,498.347)">
               <path fill="rgb(255,255,255)" fill-opacity="1"
                     d="M0 0 M28.011,-26.094 C28.011,-22.374000000000002 28.123,-19.049 28.349,-16.625 C28.349,-16.625 25.699,-16.625 25.699,-16.625 C24.066000000000003,-32.688 22.319000000000003,-38.21 7.891,-38.21 C7.891,-38.21 0.62,-38.21 0.62,-38.21 C-7.213,-38.21 -8.735,-37.027 -8.735,-28.63 C-8.735,-28.63 -8.735,-0.225 -8.735,-0.225 C-8.735,-0.225 -0.281,-0.225 -0.281,-0.225 C9.75,-0.225 9.526,-9.919 10.427,-15.442 C10.427,-15.442 13.075,-15.442 13.075,-15.442 C12.738,-10.594999999999999 12.681,-7.2700000000000005 12.681,-4.565 C12.681,-2.4800000000000004 12.738,-0.789 12.738,0.902 C12.738,4.734 12.850000000000001,8.565999999999999 13.47,17.302 C13.47,17.302 10.765,17.302 10.765,17.302 C9.864,9.919 9.75,2.086 -0.281,2.086 C-0.281,2.086 -8.735,2.086 -8.735,2.086 C-8.735,2.086 -8.735,28.63 -8.735,28.63 C-8.735,37.027 -6.762,38.211 2.931,38.549 C2.931,38.549 2.931,40.86 2.931,40.86 C-1.0700000000000003,40.635 -7.777,40.521 -14.032,40.521 C-20.006999999999998,40.521 -25.586,40.635 -28.799,40.86 C-28.799,40.86 -28.799,38.549 -28.799,38.549 C-20.965,38.211 -19.443,37.027 -19.443,28.63 C-19.443,28.63 -19.443,-28.63 -19.443,-28.63 C-19.443,-37.027 -20.965,-38.21 -28.799,-38.549 C-28.799,-38.549 -28.799,-40.86 -28.799,-40.86 C-17.47,-40.521 -2.2540000000000004,-40.521 4.678,-40.521 C11.722999999999999,-40.521 21.641,-40.521 28.799,-40.86 C28.235,-34.998 28.011,-28.968 28.011,-26.094z"
                     style="display: block;"></path>
             </g>
             <g opacity="1" transform="matrix(1,0,0,1,613.995,499.164)">
               <path fill="rgb(255,255,255)" fill-opacity="1"
                     d="M0 0 M35.674,34.294 C32.405,39.028999999999996 29.532,41.677 23.332,41.677 C17.528,41.677 13.131,39.028000000000006 10.934,29.164 C10.934,29.164 8.398,17.667 8.398,17.667 C6.199999999999999,7.862000000000002 4.509,1.268 -4.621,1.268 C-4.621,1.268 -15.611,1.268 -15.611,1.268 C-15.611,1.268 -15.611,27.812 -15.611,27.812 C-15.611,36.209 -14.09,37.394 -6.256,37.732 C-6.256,37.732 -6.256,40.042 -6.256,40.042 C-9.806000000000001,39.817 -15.610999999999999,39.703 -20.909,39.703 C-26.881999999999998,39.703 -32.461999999999996,39.817 -35.674,40.042 C-35.674,40.042 -35.674,37.732 -35.674,37.732 C-27.84,37.394 -26.319,36.209 -26.319,27.812 C-26.319,27.812 -26.319,-29.448 -26.319,-29.448 C-26.319,-37.844 -27.84,-39.027 -35.674,-39.366 C-35.674,-39.366 -35.674,-41.676 -35.674,-41.676 C-32.461999999999996,-41.451 -26.657999999999998,-41.339 -21.586,-41.339 C-14.315999999999999,-41.339 -6.933,-41.564 -4.172,-41.564 C14.427,-41.564 23.669,-32.771 23.669,-21.5 C23.669,-13.497 18.655,-2.002 1.241,0.704 C1.241,0.704 2.648,0.93 2.648,0.93 C12.905999999999999,2.621 16.625,6.565000000000001 18.824,16.146 C18.824,16.146 21.698,27.925 21.698,27.925 C23.107,34.631 24.404,37.393 27.616,37.393 C30.434,37.393 31.785999999999998,35.702 33.928,32.997 C33.928,32.997 35.674,34.294 35.674,34.294zM0 0 M-15.611,-29.448 C-15.611,-29.448 -15.611,-1.042 -15.611,-1.042 C-15.611,-1.042 -7.834,-1.042 -7.834,-1.042 C8.510000000000002,-1.042 12.117,-9.608 12.117,-20.204 C12.117,-32.321 6.932,-39.366 -7.045,-39.366 C-14.09,-39.366 -15.611,-37.394 -15.611,-29.448z"
                     style="display: block;"></path>
             </g>
             <g opacity="1" transform="matrix(1,0,0,1,709.031,498.347)">
               <path fill="rgb(255,255,255)" fill-opacity="1"
                     d="M0 0 M29.954,40.86 C22.12,40.521 11.243,40.521 3.522,40.521 C-3.4090000000000003,40.521 -18.626,40.521 -29.954,40.86 C-29.954,40.86 -29.954,38.548 -29.954,38.548 C-22.12,38.211 -20.599,37.027 -20.599,28.63 C-20.599,28.63 -20.599,-28.63 -20.599,-28.63 C-20.599,-37.027 -22.12,-38.21 -29.954,-38.549 C-29.954,-38.549 -29.954,-40.86 -29.954,-40.86 C-18.626,-40.521 -3.4090000000000003,-40.521 3.522,-40.521 C10.567,-40.521 20.486,-40.521 27.643,-40.86 C27.080000000000002,-35.45 26.854,-29.869 26.854,-27.221 C26.854,-24.459 26.968,-21.811 27.192,-20.064 C27.192,-20.064 24.544,-20.064 24.544,-20.064 C23.022000000000002,-33.702 21.275,-38.21 9.046,-38.21 C9.046,-38.21 -0.535,-38.21 -0.535,-38.21 C-8.369,-38.21 -9.891,-37.027 -9.891,-28.63 C-9.891,-28.63 -9.891,-1.409 -9.891,-1.409 C-9.891,-1.409 -2.226,-1.409 -2.226,-1.409 C7.806,-1.409 7.579999999999999,-11.103 8.482,-16.625 C8.482,-16.625 11.131,-16.625 11.131,-16.625 C10.793000000000001,-11.722000000000001 10.736,-8.397 10.736,-5.748 C10.736,-3.607 10.793,-1.9160000000000001 10.793,-0.225 C10.793,3.55 10.905,7.382 11.469,16.174 C11.469,16.174 8.82,16.174 8.82,16.174 C7.918,8.792 7.806,0.902 -2.226,0.902 C-2.226,0.902 -9.891,0.902 -9.891,0.902 C-9.891,0.902 -9.891,28.63 -9.891,28.63 C-9.891,37.027 -8.369,38.211 -0.535,38.211 C-0.535,38.211 7.918,38.211 7.918,38.211 C22.346,38.211 25.221,33.025999999999996 26.854,17.753 C26.854,17.753 29.504,17.753 29.504,17.753 C29.278000000000002,19.838 29.165,22.881 29.165,26.093 C29.165,28.968 29.391000000000002,34.999 29.954,40.86z"
                     style="display: block;"></path>
             </g>
             <g opacity="1" transform="matrix(1,0,0,1,804.237,498.347)">
               <path fill="rgb(255,255,255)" fill-opacity="1"
                     d="M0 0 M34.096,-40.86 C34.096,-40.86 34.096,-38.549 34.096,-38.549 C31.109999999999996,-37.873 28.348,-35.111000000000004 24.854,-28.292 C24.854,-28.292 6.763,7.608 6.763,7.608 C6.763,7.608 6.763,28.629 6.763,28.629 C6.763,37.027 8.227999999999998,38.21 16.118,38.548 C16.118,38.548 16.118,40.86 16.118,40.86 C12.511,40.634 6.763,40.521 1.465,40.521 C-4.565,40.521 -10.088999999999999,40.634 -13.357,40.86 C-13.357,40.86 -13.357,38.548 -13.357,38.548 C-5.467,38.21 -4.002,37.027 -4.002,28.629 C-4.002,28.629 -4.002,11.215 -4.002,11.215 C-4.002,11.215 -27.39,-31.955 -27.39,-31.955 C-30.547,-37.647 -32.462999999999994,-38.436 -34.096,-38.436 C-34.096,-38.436 -34.096,-40.86 -34.096,-40.86 C-31.109999999999996,-40.634 -27.897000000000002,-40.521 -23.952,-40.521 C-18.881,-40.521 -12.736999999999998,-40.521 -7.778,-40.86 C-7.778,-40.86 -7.778,-38.436 -7.778,-38.436 C-12.174,-38.436 -15.893,-37.422000000000004 -15.893,-33.984 C-15.893,-32.914 -15.555000000000001,-31.617 -14.71,-29.983 C-14.71,-29.983 4.508,6.819 4.508,6.819 C4.508,6.819 19.218,-22.487 19.218,-22.487 C21.36,-26.826999999999998 22.374,-30.038999999999998 22.374,-32.406 C22.374,-36.971 18.598,-38.38 12.173,-38.549 C12.173,-38.549 12.173,-40.86 12.173,-40.86 C16.569,-40.634 21.415,-40.521 25.474,-40.521 C29.363,-40.521 31.784999999999997,-40.634 34.096,-40.86z"
                     style="display: block;"></path>
             </g>
           </g>-->
    <!--foundation-->
    <!--<g transform="matrix(1,0,0,1,526,156)" opacity="1" style="user-select: none; display: block;">
      <g opacity="1" transform="matrix(1,0,0,1,201.498,624.522)">
        <path fill="rgb(255,255,255)" fill-opacity="1"
              d="M0 0 M-13.648,20.487 C-13.648,20.487 -13.648,-20.487 -13.648,-20.487 C-13.648,-20.487 13.648,-20.487 13.648,-20.487 C13.648,-20.487 13.648,-14.774 13.648,-14.774 C13.648,-14.774 -7.186,-14.774 -7.186,-14.774 C-7.186,-14.774 -7.186,-2.539 -7.186,-2.539 C-7.186,-2.539 10.244,-2.539 10.244,-2.539 C10.244,-2.539 10.244,2.828 10.244,2.828 C10.244,2.828 -7.186,2.828 -7.186,2.828 C-7.186,2.828 -7.186,20.487 -7.186,20.487 C-7.186,20.487 -13.648,20.487 -13.648,20.487z"
              style="display: block;"></path>
      </g>
      <g opacity="1" transform="matrix(1,0,0,1,250.379,624.522)">
        <path fill="rgb(255,255,255)" fill-opacity="1"
              d="M0 0 M-0.028,20.776 C-2.953,20.776 -5.617000000000001,20.189 -8.021,19.016 C-10.426,17.842999999999996 -12.494,16.284 -14.224,14.342 C-15.957,12.399000000000001 -17.294,10.177 -18.235,7.676 C-19.178,5.175000000000001 -19.65,2.617 -19.65,0.001 C-19.65,-2.73 -19.150000000000002,-5.347 -18.149,-7.849 C-17.150000000000002,-10.349 -15.774,-12.561 -14.024,-14.485 C-12.273,-16.408 -10.195,-17.937 -7.79,-19.073 C-5.385,-20.207 -2.7609999999999997,-20.775 0.087,-20.775 C3.0100000000000002,-20.775 5.676,-20.169 8.08,-18.957 C10.485,-17.745 12.542000000000002,-16.158 14.255,-14.196 C15.967,-12.233 17.294999999999998,-10.013 18.238,-7.53 C19.179,-5.049 19.65,-2.519 19.65,0.058 C19.65,2.79 19.16,5.406 18.179,7.906 C17.198999999999998,10.408 15.822,12.609 14.052,14.515 C12.283,16.419 10.196,17.939 7.791,19.074 C5.386000000000001,20.209000000000003 2.779,20.776 -0.028,20.776zM0 0 M-13.071,0.001 C-13.071,1.924 -12.763,3.791 -12.147,5.598 C-11.532,7.407 -10.657,9.003 -9.522,10.389 C-8.388,11.773 -7.01,12.879000000000001 -5.395,13.707 C-3.7789999999999995,14.534 -1.972,14.947 0.029,14.947 C2.106,14.947 3.944,14.515 5.54,13.648 C7.1370000000000005,12.783 8.493,11.639999999999999 9.609,10.216 C10.725,8.792 11.571,7.195 12.149,5.425 C12.725999999999999,3.6559999999999997 13.013,1.8479999999999999 13.013,0.001 C13.013,-1.9620000000000002 12.705,-3.8369999999999997 12.091,-5.627 C11.475,-7.415 10.599,-8.992 9.465,-10.359 C8.33,-11.724 6.964,-12.82 5.367,-13.648 C3.771,-14.475 1.992,-14.889 0.029,-14.889 C-2.048,-14.889 -3.894,-14.456 -5.511,-13.59 C-7.127000000000001,-12.725 -8.493,-11.6 -9.609,-10.214 C-10.725,-8.83 -11.581,-7.242 -12.177,-5.453 C-12.774,-3.6640000000000006 -13.071,-1.846 -13.071,0.001z"
              style="display: block;"></path>
      </g>
      <g opacity="1" transform="matrix(1,0,0,1,306.821,624.666)">
        <path fill="rgb(255,255,255)" fill-opacity="1"
              d="M0 0 M-0.029,14.803 C2.125,14.803 3.914,14.381 5.338,13.533 C6.76,12.687999999999999 7.906000000000001,11.581 8.772,10.215 C9.638,8.85 10.252,7.292 10.618,5.541 C10.983,3.7900000000000005 11.167,1.991 11.167,0.145 C11.167,0.145 11.167,-20.631 11.167,-20.631 C11.167,-20.631 17.688,-20.631 17.688,-20.631 C17.688,-20.631 17.688,0.145 17.688,0.145 C17.688,2.953 17.361,5.598 16.707,8.08 C16.052,10.562000000000001 15.013,12.735 13.591,14.602 C12.167,16.468 10.329,17.939999999999998 8.079,19.016 C5.828000000000001,20.093999999999998 3.125,20.632 -0.029,20.632 C-3.3,20.632 -6.0600000000000005,20.065 -8.31,18.93 C-10.561,17.794999999999998 -12.379,16.275 -13.764,14.37 C-15.149999999999999,12.465 -16.15,10.282 -16.766,7.821 C-17.381999999999998,5.359 -17.688,2.799 -17.688,0.145 C-17.688,0.145 -17.688,-20.631 -17.688,-20.631 C-17.688,-20.631 -11.226,-20.631 -11.226,-20.631 C-11.226,-20.631 -11.226,0.145 -11.226,0.145 C-11.226,2.03 -11.044,3.848 -10.677,5.598 C-10.311,7.349 -9.696,8.907 -8.83,10.273 C-7.965,11.639 -6.811,12.735000000000001 -5.368,13.563 C-3.9250000000000003,14.39 -2.146,14.803 -0.029,14.803z"
              style="display: block;"></path>
      </g>
      <g opacity="1" transform="matrix(1,0,0,1,363.607,624.522)">
        <path fill="rgb(255,255,255)" fill-opacity="1"
              d="M0 0 M-11.051,-8.367 C-11.051,-8.367 -11.051,20.487 -11.051,20.487 C-11.051,20.487 -17.515,20.487 -17.515,20.487 C-17.515,20.487 -17.515,-20.487 -17.515,-20.487 C-17.515,-20.487 -12.435,-20.487 -12.435,-20.487 C-12.435,-20.487 10.994,9.062 10.994,9.062 C10.994,9.062 10.994,-20.43 10.994,-20.43 C10.994,-20.43 17.515,-20.43 17.515,-20.43 C17.515,-20.43 17.515,20.487 17.515,20.487 C17.515,20.487 12.148,20.487 12.148,20.487 C12.148,20.487 -11.051,-8.367 -11.051,-8.367z"
              style="display: block;"></path>
      </g>
      <g opacity="1" transform="matrix(1,0,0,1,420.596,624.522)">
        <path fill="rgb(255,255,255)" fill-opacity="1"
              d="M0 0 M-17.256,20.487 C-17.256,20.487 -17.256,-20.487 -17.256,-20.487 C-17.256,-20.487 -2.712,-20.487 -2.712,-20.487 C0.5959999999999996,-20.487 3.4909999999999997,-19.948 5.973,-18.871 C8.454,-17.793 10.532,-16.332 12.206,-14.486 C13.879999999999999,-12.639000000000001 15.138,-10.475 15.986,-7.994 C16.831,-5.510999999999999 17.256,-2.8659999999999997 17.256,-0.058 C17.256,3.0580000000000003 16.784,5.878 15.841,8.397 C14.898,10.918 13.562,13.072000000000001 11.83,14.861 C10.1,16.649 8.002,18.035 5.541,19.015 C3.0780000000000003,19.997 0.3259999999999996,20.487 -2.712,20.487 C-2.712,20.487 -17.256,20.487 -17.256,20.487zM0 0 M10.677,-0.058 C10.677,-2.2119999999999997 10.378,-4.193 9.782,-6.002 C9.185,-7.81 8.309999999999999,-9.358 7.156,-10.648 C6.003,-11.936 4.598,-12.946 2.943,-13.677 C1.2890000000000001,-14.408 -0.5960000000000001,-14.774 -2.712,-14.774 C-2.712,-14.774 -10.792,-14.774 -10.792,-14.774 C-10.792,-14.774 -10.792,14.773 -10.792,14.773 C-10.792,14.773 -2.712,14.773 -2.712,14.773 C-0.5570000000000004,14.773 1.357,14.399 3.029,13.648 C4.702999999999999,12.899 6.1080000000000005,11.86 7.243,10.533 C8.377,9.205 9.234,7.637 9.811,5.829 C10.387,4.02 10.677,2.0580000000000003 10.677,-0.058z"
              style="display: block;"></path>
      </g>
      <g opacity="1" transform="matrix(1,0,0,1,471.034,624.522)">
        <path fill="rgb(255,255,255)" fill-opacity="1"
              d="M0 0 M-2.77,-20.487 C-2.77,-20.487 2.887,-20.487 2.887,-20.487 C2.887,-20.487 19.044,20.487 19.044,20.487 C19.044,20.487 12.237,20.487 12.237,20.487 C12.237,20.487 7.909,9.349 7.909,9.349 C7.909,9.349 -7.905,9.349 -7.905,9.349 C-7.905,9.349 -12.176,20.487 -12.176,20.487 C-12.176,20.487 -19.044,20.487 -19.044,20.487 C-19.044,20.487 -2.77,-20.487 -2.77,-20.487zM0 0 M6.639,4.559 C6.639,4.559 0.06,-13.044 0.06,-13.044 C0.06,-13.044 -6.75,4.559 -6.75,4.559 C-6.75,4.559 6.639,4.559 6.639,4.559z"
              style="display: block;"></path>
      </g>
      <g opacity="1" transform="matrix(1,0,0,1,517.261,624.522)">
        <path fill="rgb(255,255,255)" fill-opacity="1"
              d="M0 0 M16.909,-14.774 C16.909,-14.774 3.29,-14.774 3.29,-14.774 C3.29,-14.774 3.29,20.487 3.29,20.487 C3.29,20.487 -3.233,20.487 -3.233,20.487 C-3.233,20.487 -3.233,-14.774 -3.233,-14.774 C-3.233,-14.774 -16.909,-14.774 -16.909,-14.774 C-16.909,-14.774 -16.909,-20.487 -16.909,-20.487 C-16.909,-20.487 16.909,-20.487 16.909,-20.487 C16.909,-20.487 16.909,-14.774 16.909,-14.774z"
              style="display: block;"></path>
      </g>
      <g opacity="1" transform="matrix(1,0,0,1,555.869,624.522)">
        <path fill="rgb(255,255,255)" fill-opacity="1"
              d="M0 0 M-3.232,-20.487 C-3.232,-20.487 3.232,-20.487 3.232,-20.487 C3.232,-20.487 3.232,20.487 3.232,20.487 C3.232,20.487 -3.232,20.487 -3.232,20.487 C-3.232,20.487 -3.232,-20.487 -3.232,-20.487z"
              style="display: block;"></path>
      </g>
      <g opacity="1" transform="matrix(1,0,0,1,598.372,624.522)">
        <path fill="rgb(255,255,255)" fill-opacity="1"
              d="M0 0 M-0.029,20.776 C-2.952,20.776 -5.618,20.189 -8.021,19.016 C-10.427000000000001,17.842999999999996 -12.494000000000002,16.284 -14.226,14.342 C-15.956000000000001,12.399000000000001 -17.293999999999997,10.177 -18.237,7.676 C-19.179,5.175000000000001 -19.651,2.617 -19.651,0.001 C-19.651,-2.73 -19.151,-5.347 -18.15,-7.849 C-17.151,-10.349 -15.776,-12.561 -14.023,-14.485 C-12.274,-16.408 -10.196,-17.937 -7.792,-19.073 C-5.3870000000000005,-20.207 -2.76,-20.775 0.087,-20.775 C3.0100000000000002,-20.775 5.6739999999999995,-20.169 8.078,-18.957 C10.484,-17.745 12.542,-16.158 14.254,-14.196 C15.965,-12.233 17.293,-10.013 18.237,-7.53 C19.179,-5.049 19.651,-2.519 19.651,0.058 C19.651,2.79 19.16,5.406 18.178,7.906 C17.198,10.408 15.823,12.609 14.053,14.515 C12.284,16.419 10.194,17.939 7.791,19.074 C5.3870000000000005,20.209000000000003 2.7800000000000002,20.776 -0.029,20.776zM0 0 M-13.07,0.001 C-13.07,1.924 -12.764,3.791 -12.148,5.598 C-11.533999999999999,7.407 -10.658,9.003 -9.522,10.389 C-8.387,11.773 -7.0120000000000005,12.879000000000001 -5.396,13.707 C-3.7809999999999997,14.534 -1.971,14.947 0.029,14.947 C2.1069999999999998,14.947 3.944,14.515 5.54,13.648 C7.136,12.783 8.492,11.639999999999999 9.608,10.216 C10.724,8.792 11.572,7.195 12.148,5.425 C12.725,3.6559999999999997 13.014,1.8479999999999999 13.014,0.001 C13.014,-1.9620000000000002 12.705,-3.8369999999999997 12.089,-5.627 C11.475,-7.415 10.6,-8.992 9.465,-10.359 C8.328,-11.724 6.963,-12.82 5.368,-13.648 C3.769,-14.475 1.9909999999999999,-14.889 0.029,-14.889 C-2.049,-14.889 -3.895,-14.456 -5.511,-13.59 C-7.127000000000001,-12.725 -8.494,-11.6 -9.608,-10.214 C-10.726,-8.83 -11.581,-7.242 -12.176,-5.453 C-12.774000000000001,-3.6640000000000006 -13.07,-1.846 -13.07,0.001z"
              style="display: block;"></path>
      </g>
      <g opacity="1" transform="matrix(1,0,0,1,655.216,624.522)">
        <path fill="rgb(255,255,255)" fill-opacity="1"
              d="M0 0 M-11.051,-8.367 C-11.051,-8.367 -11.051,20.487 -11.051,20.487 C-11.051,20.487 -17.515,20.487 -17.515,20.487 C-17.515,20.487 -17.515,-20.487 -17.515,-20.487 C-17.515,-20.487 -12.436,-20.487 -12.436,-20.487 C-12.436,-20.487 10.995,9.062 10.995,9.062 C10.995,9.062 10.995,-20.43 10.995,-20.43 C10.995,-20.43 17.515,-20.43 17.515,-20.43 C17.515,-20.43 17.515,20.487 17.515,20.487 C17.515,20.487 12.148,20.487 12.148,20.487 C12.148,20.487 -11.051,-8.367 -11.051,-8.367z"
              style="display: block;"></path>
      </g>
    </g>-->
  </g>
</svg>
